<?xml version="1.0" encoding="UTF-8"?>
<svg width="32" height="32" viewBox="0 0 32 32" fill="none" xmlns="http://www.w3.org/2000/svg">
  <rect width="32" height="32" rx="8" fill="#8B5CF6"/>
  <path d="M16 8C19.866 8 23 11.134 23 15C23 18.866 19.866 22 16 22C12.134 22 9 18.866 9 15C9 11.134 12.134 8 16 8ZM16 10C13.2386 10 11 12.2386 11 15C11 17.7614 13.2386 20 16 20C18.7614 20 21 17.7614 21 15C21 12.2386 18.7614 10 16 10ZM16 12C17.6569 12 19 13.3431 19 15C19 16.6569 17.6569 18 16 18C14.3431 18 13 16.6569 13 15C13 13.3431 14.3431 12 16 12Z" fill="white"/>
</svg>
